<?xml version="1.0" standalone="no"?><!DOCTYPE svg PUBLIC "-//W3C//DTD SVG 1.1//EN" "http://www.w3.org/Graphics/SVG/1.1/DTD/svg11.dtd"><svg t="1599139279602" class="icon" viewBox="0 0 1024 1024" version="1.1" xmlns="http://www.w3.org/2000/svg" p-id="2789" xmlns:xlink="http://www.w3.org/1999/xlink" width="200" height="200"><defs><style type="text/css"></style></defs><path d="M366.336 377.941333l-211.2 211.2 221.610667 221.610667H426.666667V810.666667h50.005333l161.194667-161.194667-271.530667-271.530667zM426.666667 317.610667l271.530666 271.530666 120.661334-120.704-271.530667-271.530666L426.666667 317.610667zM597.333333 810.666667h298.666667v85.333333h-384l-170.581333 0.085333-276.778667-276.778666a42.666667 42.666667 0 0 1 0-60.330667L517.12 106.410667a42.666667 42.666667 0 0 1 60.373333 0l331.861334 331.861333a42.666667 42.666667 0 0 1 0 60.330667L597.333333 810.666667z" p-id="2790" fill="#d81e06"></path></svg>