<?xml version="1.0" standalone="no"?><!DOCTYPE svg PUBLIC "-//W3C//DTD SVG 1.1//EN" "http://www.w3.org/Graphics/SVG/1.1/DTD/svg11.dtd"><svg t="1599187109980" class="icon" viewBox="0 0 1024 1024" version="1.1" xmlns="http://www.w3.org/2000/svg" p-id="6619" xmlns:xlink="http://www.w3.org/1999/xlink" width="200" height="200"><defs><style type="text/css"></style></defs><path d="M512 0c282.76736 0 512 229.23264 512 512s-229.23264 512-512 512S0 794.76736 0 512 229.23264 0 512 0z" fill="#EDEDED" p-id="6620"></path><path d="M612.93568 255.87712l165.23264 165.33504-114.01216 179.02592a113.64352 113.64352 0 0 1-61.6448 43.66336l-271.11424 81.84832c-4.74112 1.4336-11.88864-6.16448-11.88864-6.16448l187.45344-177.32608c11.65312-11.6736 27.83232-16.8448 44.57472-16.72192a40.05888 40.05888 0 0 0 34.82624-19.41504c7.96672-12.93312 7.71072-30.16704-0.64512-43.3664-15.23712-24.07424-47.04256-27.17696-65.34144-8.86784a40.0384 40.0384 0 0 0-11.6736 28.928c0.17408 16.66048-5.02784 32.74752-16.61952 44.3392L314.7776 714.84416s-7.22944-8.37632-5.49888-14.09024l81.14176-269.09696a113.50016 113.50016 0 0 1 43.6224-61.66528l178.8928-114.11456z" fill="#F2D27E" p-id="6621"></path><path d="M613.31456 256.24576L434.4832 370.75968a114.37056 114.37056 0 0 0-43.70432 61.94176l-6.31808 18.71872-75.18208 249.33376c-1.72032 5.71392 5.49888 14.09024 5.49888 14.09024L492.09344 527.1552c11.59168-11.59168 16.7936-27.67872 16.61952-44.3392a40.0384 40.0384 0 0 1 11.6736-28.928c16.29184-16.29184 43.20256-15.52384 59.67872 1.792l116.09088-116.5312-82.8416-82.90304z" fill="#E6C778" p-id="6622"></path><path d="M819.3024 399.73888L634.50112 214.94784l-24.46336 24.45312a20.1216 20.1216 0 0 0 0 28.43648l156.37504 156.3648a20.09088 20.09088 0 0 0 28.42624 0l24.46336-24.46336z" fill="#7C3A15" p-id="6623"></path><path d="M664.15616 589.99808a113.64352 113.64352 0 0 1-61.6448 43.66336l-271.11424 81.84832c-1.8432 0.55296-4.0448-0.256-6.0416-1.45408l-5.84704 5.5296s7.14752 7.58784 11.88864 6.16448l271.11424-81.84832a113.57184 113.57184 0 0 0 61.6448-43.66336l114.01216-179.01568-3.98336-3.98336-110.0288 172.75904z" fill="#E6C778" p-id="6624"></path><path d="M319.51872 709.34528l4.20864-3.98336L492.09344 527.1552c11.59168-11.59168 16.7936-27.67872 16.61952-44.3392a40.0384 40.0384 0 0 1 11.6736-28.928c18.29888-18.30912 50.10432-15.19616 65.34144 8.86784 3.38944 5.34528 5.376 11.37664 6.10304 17.50016a42.0864 42.0864 0 0 0-6.10304-27.74016c-15.23712-24.07424-47.04256-27.17696-65.34144-8.86784a40.0384 40.0384 0 0 0-11.6736 28.928c0.17408 16.66048-5.02784 32.74752-16.61952 44.3392L314.7776 704.60416s-2.816-3.26656-4.51584-7.1168l-0.98304 3.26656c-1.72032 5.71392 5.49888 14.09024 5.49888 14.09024l4.9664-5.26336-0.22528-0.23552z" fill="#DABD72" p-id="6625"></path><path d="M798.8224 379.25888l-24.46336 24.46336a20.09088 20.09088 0 0 1-28.42624 0l-135.89504-135.8848h0.01024l156.37504 156.3648a20.09088 20.09088 0 0 0 28.42624 0l24.46336-24.46336-20.49024-20.48z" fill="#6A3112" p-id="6626"></path><path d="M894.13632 402.92352a57.1392 57.1392 0 0 1-80.82432 0L631.296 220.90752a57.16992 57.16992 0 0 1 0-80.83456l93.66528-93.65504c116.23424 53.25824 209.14176 148.62336 258.95936 266.7008l-89.78432 89.8048z" fill="#9B481A" p-id="6627"></path><path d="M842.93632 351.72352l106.19904-106.20928a506.74688 506.74688 0 0 1 34.78528 67.61472l-89.79456 89.8048a57.1392 57.1392 0 0 1-80.82432 0l-37.85728-37.85728c23.06048 6.99392 51.456 2.68288 67.49184-13.35296z" fill="#843D16" p-id="6628"></path><path d="M661.1456 110.24384l14.47936-14.47936L938.46528 358.6048l-14.47936 14.47936z m248.36096 277.30944l-14.47936 14.47936-262.84032-262.84032 14.47936-14.47936z" fill="#82401B" p-id="6629"></path><path d="M872.77568 321.88416l14.47936-14.47936 51.2 51.2-14.47936 14.47936z m36.74112 65.66912l-14.47936 14.47936-51.2-51.2 14.47936-14.47936z" fill="#703718" p-id="6630"></path></svg>