<?xml version="1.0" standalone="no"?><!DOCTYPE svg PUBLIC "-//W3C//DTD SVG 1.1//EN" "http://www.w3.org/Graphics/SVG/1.1/DTD/svg11.dtd"><svg t="1599187090973" class="icon" viewBox="0 0 1024 1024" version="1.1" xmlns="http://www.w3.org/2000/svg" p-id="6310" xmlns:xlink="http://www.w3.org/1999/xlink" width="200" height="200"><defs><style type="text/css"></style></defs><path d="M512 0c282.76736 0 512 229.23264 512 512s-229.23264 512-512 512S0 794.76736 0 512 229.23264 0 512 0z" fill="#91D8F0" p-id="6311"></path><path d="M249.9584 515.04128a16.09728 16.09728 0 0 0-4.33152 10.21952 14.6432 14.6432 0 0 0 4.22912 10.9568c58.37824 58.78784 49.43872 143.58528 8.30464 185.00608-27.136 27.32032-71.17824 42.46528-98.16064 61.92128-14.86848 10.6496-29.68576 23.57248-44.15488 38.15424-2.22208 2.24256-4.34176 4.5056-6.46144 6.76864a514.7648 514.7648 0 0 0 101.632 98.00704l4.608-4.33152c14.47936-14.58176 27.32032-29.4912 37.89824-44.46208 19.26144-27.22816 34.3552-71.51616 61.4912-98.84672 41.14432-41.4208 125.29664-50.4832 183.73632 8.35584 6.27712 6.32832 15.91296 4.92544 20.59264 0.33792l74.58816-75.12064-269.824-271.62624-74.14784 74.65984z" fill="#324D5B" p-id="6312"></path><path d="M574.62784 210.78016L823.12192 459.264a20.6848 20.6848 0 0 1 0 29.2352L662.33344 649.27744a20.64384 20.64384 0 0 1-29.22496 0L384.6144 400.80384a20.6848 20.6848 0 0 1 0-29.2352l160.78848-160.78848a20.66432 20.66432 0 0 1 29.22496 0z" fill="#F4F0D3" p-id="6313"></path><path d="M579.9424 238.39744a10.15808 10.15808 0 0 0-14.37696 0L443.22816 360.72448a10.1888 10.1888 0 0 0 14.3872 14.39744l122.32704-122.32704a10.1888 10.1888 0 0 0 0-14.39744z m35.97312 35.97312a10.15808 10.15808 0 0 0-14.37696 0L479.20128 396.6976a10.1888 10.1888 0 0 0 14.3872 14.39744L615.91552 288.768a10.16832 10.16832 0 0 0 0-14.39744z m35.98336 35.98336a10.16832 10.16832 0 0 0-14.3872 0L515.18464 432.68096a10.1888 10.1888 0 0 0 14.39744 14.39744l122.3168-122.32704a10.16832 10.16832 0 0 0 0-14.39744z m35.98336 35.97312a10.16832 10.16832 0 0 0-14.3872 0L551.15776 468.66432a10.1888 10.1888 0 0 0 14.39744 14.39744l122.3168-122.32704a10.1888 10.1888 0 0 0 0.01024-14.40768z m35.97312 35.98336a10.16832 10.16832 0 0 0-14.3872 0L587.14112 504.63744a10.1888 10.1888 0 0 0 14.39744 14.39744L723.85536 396.6976a10.15808 10.15808 0 0 0 0-14.3872z m35.98336 35.98336a10.16832 10.16832 0 0 0-14.3872 0L623.12448 540.6208a10.17856 10.17856 0 0 0 14.3872 14.3872l122.32704-122.32704a10.15808 10.15808 0 0 0 0-14.3872z m35.98336 35.97312a10.16832 10.16832 0 0 0-14.3872 0L659.0976 576.60416a10.17856 10.17856 0 0 0 14.3872 14.3872l122.32704-122.32704a10.17856 10.17856 0 0 0 0.01024-14.39744z" fill="#E8E4C8" p-id="6314"></path><path d="M823.12192 459.264L574.62784 210.78016a20.66432 20.66432 0 0 0-29.22496 0l-18.39104 18.39104 110.1312 108.98432c8.38656 16.16896 6.25664 36.63872-9.0624 50.24768l-17.13152 15.19616c-9.45152 8.3968-9.45152 22.00576 0 30.40256 9.46176 8.3968 25.38496 7.41376 33.5872-0.90112l-44.16512 42.33216a20.66432 20.66432 0 0 0 0 30.14656c8.704 8.32512 22.81472 8.32512 31.49824 0l20.10112-19.73248a21.54496 21.54496 0 0 0 0 30.14656 20.7872 20.7872 0 0 0 29.68576 0l37.12-37.6832a41.5744 41.5744 0 0 1 59.40224 0l27.96544 27.15648 16.96768-16.96768a20.67456 20.67456 0 0 0 0.01024-29.2352z" fill="#E2574C" p-id="6315"></path><path d="M317.14304 440.38144l-74.14784 74.65984a16.09728 16.09728 0 0 0-4.33152 10.21952 14.6432 14.6432 0 0 0 4.22912 10.9568c58.37824 58.78784 49.43872 143.58528 8.30464 185.00608-27.136 27.32032-71.17824 42.46528-98.16064 61.92128-14.86848 10.6496-29.68576 23.57248-44.15488 38.15424l-2.64192 2.77504a515.584 515.584 0 0 0 47.69792 53.73952l291.2768-291.2768-121.1904-139.2128-6.88128-6.94272z" fill="#2D4552" p-id="6316"></path><path d="M387.84 368.32256l277.90336 277.02272-102.21568 102.144-277.90336-277.0432 102.21568-102.12352z" fill="#D3D5D6" p-id="6317"></path><path d="M427.15136 611.54304l102.28736-102.07232-141.59872-141.14816-102.21568 102.12352z" fill="#C8CACB" p-id="6318"></path><path d="M587.73504 640.54272c-7.99744-8.05888-20.96128-8.05888-28.95872 0s-7.99744 21.12512 0 29.19424 20.96128 8.05888 28.95872 0 8.00768-21.13536 0-29.19424z m-80.24064-51.05664a20.3776 20.3776 0 0 0 0 28.96896c8.05888 7.9872 21.12512 7.9872 29.184 0a20.35712 20.35712 0 0 0 0-28.96896 20.76672 20.76672 0 0 0-29.184 0z" fill="#BDBFC0" p-id="6319"></path><path d="M415.41632 497.18272a20.77696 20.77696 0 0 0 0 29.20448 20.39808 20.39808 0 0 0 28.96896 0c7.99744-8.06912 7.99744-21.13536 0-29.20448s-20.97152-8.05888-28.96896 0z m-51.28192-51.05664a20.3776 20.3776 0 0 0 0 28.96896 20.75648 20.75648 0 0 0 29.19424 0 20.35712 20.35712 0 0 0 0-28.96896 20.75648 20.75648 0 0 0-29.19424 0z" fill="#B4B5B6" p-id="6320"></path><path d="M633.7024 382.2592l4.61824-4.096c15.31904-13.60896 17.44896-34.07872 9.0624-50.24768L537.25184 218.9312l-10.24 10.24 110.1312 108.98432c7.20896 13.88544 6.58432 30.93504-3.44064 44.10368z m-12.51328 41.50272c-7.90528-7.03488-9.1136-17.69472-3.75808-25.9072l-6.48192 5.74464c-9.45152 8.3968-9.45152 22.00576 0 30.40256 8.448 7.49568 22.00576 7.4752 30.6688 1.47456l13.1584-12.61568c-8.192 8.31488-24.12544 9.29792-33.5872 0.90112z m107.8272 44.30848l-9.40032 9.54368a41.50272 41.50272 0 0 1 58.56256 0.69632l27.96544 27.15648 10.24-10.24-27.96544-27.15648a41.5744 41.5744 0 0 0-59.40224 0z m-66.80576 37.69344a21.54496 21.54496 0 0 1 0-30.14656l-20.10112 19.73248a22.9888 22.9888 0 0 1-31.49824 0 20.57216 20.57216 0 0 1-1.98656-27.81184l-8.25344 7.90528a20.66432 20.66432 0 0 0 0 30.14656c8.704 8.32512 22.81472 8.32512 31.49824 0l20.10112-19.73248a21.54496 21.54496 0 0 0 0 30.14656 20.7872 20.7872 0 0 0 29.68576 0l9.40032-9.54368a20.72576 20.72576 0 0 1-28.84608-0.69632z" fill="#D85C50" p-id="6321"></path></svg>