<?xml version="1.0" standalone="no"?><!DOCTYPE svg PUBLIC "-//W3C//DTD SVG 1.1//EN" "http://www.w3.org/Graphics/SVG/1.1/DTD/svg11.dtd"><svg t="1599139267954" class="icon" viewBox="0 0 1024 1024" version="1.1" xmlns="http://www.w3.org/2000/svg" p-id="2620" xmlns:xlink="http://www.w3.org/1999/xlink" width="200" height="200"><defs><style type="text/css"></style></defs><path d="M938.1 226.4L798.2 86.5c-29.7-29.7-78.1-29.7-107.8 0l-392 392c-5.1 5.1-9.1 11.2-11.6 17.8-1.3 2.5-2.4 5.1-3.2 7.9l-60.7 209.9c-7.2 25-0.5 51.8 17.7 69.9s44.9 24.9 69.9 17.7L520.4 741c2.3-0.7 4.5-1.5 6.6-2.6 7-2.6 13.5-6.7 19.1-12.3l392-392c29.7-29.6 29.7-78 0-107.7zM876 280.3l-64 64-131.8-131.7 64-64L876 280.3z m-568.7 437L342 597.1l85.5 85.5-120.2 34.7zM376.9 516l245.4-245.4L754 402.3 508.6 647.7 376.9 516z" p-id="2621" fill="#d81e06"></path><path d="M513.8 943.7c-112.9 0-219.7-16.3-300.6-45.8-41.9-15.3-75.4-33.6-99.6-54.5-38.1-32.9-46.1-66.3-46.1-88.6 0-27.4 11.8-67.9 68.2-105.3 18.9-12.5 44.3-7.4 56.8 11.5s7.4 44.3-11.5 56.8c-19.7 13.1-31.5 26.9-31.5 37 0 15.7 28.7 43.1 91.7 66.1 72.1 26.3 168.9 40.8 272.5 40.8s200.3-14.5 272.5-40.8c63-23 91.7-50.4 91.7-66.1 0-11-14.3-26.6-37.3-40.7-32.2-19.7-79.2-36.3-136.1-48-22.2-4.6-36.4-26.3-31.9-48.4 4.6-22.2 26.3-36.4 48.4-31.9 66.1 13.6 122.2 33.8 162.4 58.4 63.3 38.7 76.5 81.5 76.5 110.6 0 22.3-8 55.8-46.1 88.6-24.2 20.9-57.7 39.2-99.6 54.5-80.7 29.5-187.5 45.8-300.4 45.8z" p-id="2622" fill="#d81e06"></path></svg>