<?xml version="1.0" standalone="no"?><!DOCTYPE svg PUBLIC "-//W3C//DTD SVG 1.1//EN" "http://www.w3.org/Graphics/SVG/1.1/DTD/svg11.dtd"><svg t="1599138792418" class="icon" viewBox="0 0 1024 1024" version="1.1" xmlns="http://www.w3.org/2000/svg" p-id="2487" xmlns:xlink="http://www.w3.org/1999/xlink" width="200" height="200"><defs><style type="text/css"></style></defs><path d="M792.00000031 912.00000031H231.99999969c-67.99999969 0-120-52.00000031-120-120V231.99999969c0-67.99999969 52.00000031-120 120-120h440.00000062c12 0 19.99999969 4.00000031 27.99999938 12l200.00000062 200.00000062c7.99999969 7.99999969 12 16.00000031 12 27.99999938v440.00000062c0 67.99999969-52.00000031 120-120 120zM231.99999969 192.00000031c-24 0-40.00000031 16.00000031-39.99999938 39.99999938v560.00000062c0 24 16.00000031 40.00000031 39.99999938 39.99999938h560.00000062c24 0 40.00000031-16.00000031 39.99999938-39.99999938V368L656 192.00000031H231.99999969z" p-id="2488"></path><path d="M711.99999969 912.00000031c-24 0-40.00000031-16.00000031-39.99999938-40.00000031v-280.00000031H351.99999969v280.00000031c0 24-16.00000031 40.00000031-39.99999938 40.00000031s-40.00000031-16.00000031-40.00000031-40.00000031v-319.99999969c0-24 16.00000031-40.00000031 40.00000031-40.00000031h399.99999938c24 0 40.00000031 16.00000031 40.00000031 40.00000031v319.99999969c0 24-16.00000031 40.00000031-40.00000031 40.00000031zM632 392H312.00000031c-24 0-40.00000031-16.00000031-40.00000031-40.00000031V152c0-24 16.00000031-40.00000031 40.00000031-40.00000031s40.00000031 16.00000031 39.99999938 40.00000031v160.00000031h280.00000031c24 0 40.00000031 16.00000031 40.00000031 39.99999938s-16.00000031 40.00000031-40.00000031 40.00000031z" p-id="2489"></path></svg>